<svg preserveAspectRatio="none" width="100%" height="100%" overflow="visible" style="display: block;" viewBox="0 0 18.3333 18.3333" fill="none" xmlns="http://www.w3.org/2000/svg">
<g id="Icon">
<path d="M9.16667 17.5C13.769 17.5 17.5 13.769 17.5 9.16667C17.5 4.56429 13.769 0.833333 9.16667 0.833333C4.56429 0.833333 0.833333 4.56429 0.833333 9.16667C0.833333 13.769 4.56429 17.5 9.16667 17.5Z" stroke="var(--stroke-0, #A3A3A3)" stroke-width="1.66667" stroke-linecap="round" stroke-linejoin="round"/>
<path d="M7.08333 6.63778C7.08333 6.24004 7.08333 6.04117 7.16645 5.93015C7.23889 5.8334 7.34976 5.77286 7.47032 5.76425C7.60865 5.75437 7.77594 5.86191 8.1105 6.07699L12.0443 8.60588C12.3347 8.79252 12.4798 8.88583 12.53 9.00449C12.5738 9.10817 12.5738 9.22516 12.53 9.32884C12.4798 9.4475 12.3347 9.54082 12.0443 9.72745L8.11051 12.2563C7.77594 12.4714 7.60865 12.579 7.47032 12.5691C7.34976 12.5605 7.23889 12.4999 7.16645 12.4032C7.08333 12.2922 7.08333 12.0933 7.08333 11.6956V6.63778Z" stroke="var(--stroke-0, #A3A3A3)" stroke-width="1.66667" stroke-linecap="round" stroke-linejoin="round"/>
</g>
</svg>
