<svg xmlns="http://www.w3.org/2000/svg" xmlns:xlink="http://www.w3.org/1999/xlink" width="1432" zoomAndPan="magnify" viewBox="0 0 1074 588.749999" height="785" preserveAspectRatio="xMidYMid meet" version="1.0"><defs><g/></defs><path fill="#059669" d="M 238.398438 171.882812 C 260.996094 185.164062 278.597656 207.492188 287.855469 232.039062 C 296.058594 253.171875 298.523438 276.535156 295.640625 299.140625 C 295.417969 300.632812 294.886719 304.230469 294.648438 305.65625 C 294.394531 307.039062 293.617188 310.683594 293.320312 312.136719 C 293.101562 313.332031 292.558594 315.242188 292.265625 316.4375 C 291.550781 319.320312 290.722656 322.164062 289.78125 324.984375 C 284.710938 340.765625 276.804688 355.644531 266.816406 368.894531 C 264.101562 372.417969 260.957031 376.285156 257.90625 379.578125 C 256.128906 381.601562 253.148438 384.4375 251.214844 386.371094 C 250.007812 387.460938 247.035156 390.140625 245.863281 391.183594 C 244.707031 392.140625 241.464844 394.753906 240.25 395.738281 C 238.390625 397.121094 236.269531 398.628906 234.367188 399.980469 C 174.453125 440.730469 93.53125 429.90625 44.972656 376.554688 C 9.742188 337.800781 0.261719 281.261719 20.261719 232.925781 C 32.152344 204.140625 54.019531 179.339844 81.914062 165.238281 C 112.738281 149.609375 150.132812 147.832031 182.171875 160.804688 C 209.820312 171.839844 233.21875 193.25 245.132812 220.535156 C 264.824219 265.003906 250.507812 319.167969 209.597656 345.984375 C 175.207031 368.632812 127.519531 363.25 101.625 330.523438 C 87.515625 313.292969 83.339844 288.429688 92.128906 268.40625 C 95.832031 259.792969 101.800781 252.027344 109.5 246.660156 C 110.515625 245.898438 111.640625 245.257812 112.695312 244.59375 C 108.945312 248.601562 105.78125 253.117188 103.460938 258.066406 C 101.660156 261.875 100.308594 265.921875 99.511719 270.058594 C 96.628906 284.195312 100.011719 299.214844 108.683594 310.652344 C 126.175781 333.726562 159.851562 339.796875 184.425781 324.613281 C 221.558594 300.859375 224.863281 247.742188 191.710938 218.964844 C 163.039062 193.21875 117.710938 193.464844 89.285156 219.457031 C 78.207031 229.566406 69.695312 242.539062 64.886719 256.746094 C 54.652344 286.808594 60.9375 320.574219 81.847656 344.566406 C 118.097656 386.101562 180.679688 392.46875 224.847656 359.585938 C 224.847656 359.585938 227.664062 357.449219 227.664062 357.449219 C 228.515625 356.726562 230.894531 354.734375 231.730469 354.03125 C 244.46875 342.542969 255.097656 328.449219 262.210938 312.792969 C 283.898438 265.398438 274.214844 209.679688 238.398438 171.882812 Z M 238.398438 171.882812 " fill-opacity="1" fill-rule="nonzero"/><g fill="#000000" fill-opacity="1"><g transform="translate(406.718429, 371.586354)"><g><path d="M 124.828125 -161.09375 L 145.859375 -161.09375 L 145.859375 0 L 121.640625 0 L 39.453125 -130.1875 L 39.015625 -130.1875 L 39.015625 0 L 18.1875 0 L 18.1875 -161.09375 L 43.71875 -161.09375 L 124.390625 -31.015625 L 124.828125 -31.015625 Z M 124.828125 -161.09375 "/></g></g></g><g fill="#000000" fill-opacity="1"><g transform="translate(552.818552, 371.586354)"><g><path d="M 86.140625 -59.9375 C 84.671875 -58.40625 81.800781 -57.164062 77.53125 -56.21875 C 73.257812 -55.269531 65.28125 -54.03125 53.59375 -52.5 C 44.96875 -51.46875 38.628906 -49.34375 34.578125 -46.125 C 30.523438 -42.914062 28.5 -38.679688 28.5 -33.421875 C 28.5 -26.992188 30.210938 -21.988281 33.640625 -18.40625 C 37.078125 -14.832031 42.554688 -13.046875 50.078125 -13.046875 C 59.503906 -13.046875 67.867188 -15.726562 75.171875 -21.09375 C 82.484375 -26.46875 86.140625 -32.988281 86.140625 -40.65625 Z M 13.921875 -81.640625 C 14.359375 -94.867188 18.648438 -104.695312 26.796875 -111.125 C 34.941406 -117.550781 46.796875 -120.765625 62.359375 -120.765625 C 74.773438 -120.765625 85.179688 -117.953125 93.578125 -112.328125 C 101.984375 -106.703125 106.1875 -98.59375 106.1875 -88 L 106.1875 -20.390625 C 106.1875 -15.785156 108.269531 -13.484375 112.4375 -13.484375 C 114.113281 -13.484375 116.269531 -13.773438 118.90625 -14.359375 L 118.90625 0 C 115.320312 1.457031 111.59375 2.1875 107.71875 2.1875 C 101 2.1875 95.992188 0.742188 92.703125 -2.140625 C 89.421875 -5.023438 87.707031 -9.535156 87.5625 -15.671875 C 76.3125 -2.960938 62.175781 3.390625 45.15625 3.390625 C 34.050781 3.390625 25.132812 0.25 18.40625 -6.03125 C 11.6875 -12.3125 8.328125 -20.492188 8.328125 -30.578125 C 8.328125 -40.878906 11.25 -49.207031 17.09375 -55.5625 C 22.9375 -61.914062 31.445312 -65.75 42.625 -67.0625 L 77.484375 -71.34375 C 83.765625 -72.289062 86.90625 -76.929688 86.90625 -85.265625 C 86.90625 -91.398438 84.617188 -96.109375 80.046875 -99.390625 C 75.484375 -102.679688 68.5625 -104.328125 59.28125 -104.328125 C 51.03125 -104.328125 44.691406 -102.5 40.265625 -98.84375 C 35.847656 -95.195312 33.203125 -89.460938 32.328125 -81.640625 Z M 13.921875 -81.640625 "/></g></g></g><g fill="#000000" fill-opacity="1"><g transform="translate(658.151303, 371.586354)"><g><path d="M 38.578125 -101.046875 L 38.578125 -24.65625 C 38.578125 -21.664062 39.394531 -19.382812 41.03125 -17.8125 C 42.675781 -16.238281 45.617188 -15.453125 49.859375 -15.453125 L 57.421875 -15.453125 L 57.421875 0 C 50.265625 1.019531 45.332031 1.53125 42.625 1.53125 C 34.375 1.53125 28.347656 -0.4375 24.546875 -4.375 C 20.742188 -8.320312 18.84375 -14.71875 18.84375 -23.5625 L 18.84375 -101.046875 L 2.953125 -101.046875 L 2.953125 -117.375 L 18.84375 -117.375 L 18.84375 -150.140625 L 38.578125 -150.140625 L 38.578125 -117.375 L 57.421875 -117.375 L 57.421875 -101.046875 Z M 38.578125 -101.046875 "/></g></g></g><g fill="#000000" fill-opacity="1"><g transform="translate(702.333011, 371.586354)"><g><path d="M 86.140625 -59.9375 C 84.671875 -58.40625 81.800781 -57.164062 77.53125 -56.21875 C 73.257812 -55.269531 65.28125 -54.03125 53.59375 -52.5 C 44.96875 -51.46875 38.628906 -49.34375 34.578125 -46.125 C 30.523438 -42.914062 28.5 -38.679688 28.5 -33.421875 C 28.5 -26.992188 30.210938 -21.988281 33.640625 -18.40625 C 37.078125 -14.832031 42.554688 -13.046875 50.078125 -13.046875 C 59.503906 -13.046875 67.867188 -15.726562 75.171875 -21.09375 C 82.484375 -26.46875 86.140625 -32.988281 86.140625 -40.65625 Z M 13.921875 -81.640625 C 14.359375 -94.867188 18.648438 -104.695312 26.796875 -111.125 C 34.941406 -117.550781 46.796875 -120.765625 62.359375 -120.765625 C 74.773438 -120.765625 85.179688 -117.953125 93.578125 -112.328125 C 101.984375 -106.703125 106.1875 -98.59375 106.1875 -88 L 106.1875 -20.390625 C 106.1875 -15.785156 108.269531 -13.484375 112.4375 -13.484375 C 114.113281 -13.484375 116.269531 -13.773438 118.90625 -14.359375 L 118.90625 0 C 115.320312 1.457031 111.59375 2.1875 107.71875 2.1875 C 101 2.1875 95.992188 0.742188 92.703125 -2.140625 C 89.421875 -5.023438 87.707031 -9.535156 87.5625 -15.671875 C 76.3125 -2.960938 62.175781 3.390625 45.15625 3.390625 C 34.050781 3.390625 25.132812 0.25 18.40625 -6.03125 C 11.6875 -12.3125 8.328125 -20.492188 8.328125 -30.578125 C 8.328125 -40.878906 11.25 -49.207031 17.09375 -55.5625 C 22.9375 -61.914062 31.445312 -65.75 42.625 -67.0625 L 77.484375 -71.34375 C 83.765625 -72.289062 86.90625 -76.929688 86.90625 -85.265625 C 86.90625 -91.398438 84.617188 -96.109375 80.046875 -99.390625 C 75.484375 -102.679688 68.5625 -104.328125 59.28125 -104.328125 C 51.03125 -104.328125 44.691406 -102.5 40.265625 -98.84375 C 35.847656 -95.195312 33.203125 -89.460938 32.328125 -81.640625 Z M 13.921875 -81.640625 "/></g></g></g></svg>